<?xml version="1.0" encoding="UTF-8"?><svg xmlns="http://www.w3.org/2000/svg" xmlns:xlink="http://www.w3.org/1999/xlink" width="1125pt" zoomAndPan="magnify" viewBox="0 0 1125 1124.99995" height="1124.99995pt" preserveAspectRatio="xMidYMid meet" version="1.2"><defs><clipPath xml:id="clip1" id="clip1"><path d="M 57.472656 102 L 759.472656 102 L 759.472656 562 L 57.472656 562 Z M 57.472656 102 "/></clipPath><clipPath xml:id="clip2" id="clip2"><path d="M 204 304 L 758 304 L 758 561.875 L 204 561.875 Z M 204 304 "/></clipPath><clipPath xml:id="clip3" id="clip3"><path d="M 57.472656 297 L 758 297 L 758 507 L 57.472656 507 Z M 57.472656 297 "/></clipPath><clipPath xml:id="clip4" id="clip4"><path d="M 57.472656 304 L 650 304 L 650 561.875 L 57.472656 561.875 Z M 57.472656 304 "/></clipPath><clipPath xml:id="clip5" id="clip5"><path d="M 381.476562 530.839844 L 1102.8125 530.839844 L 1102.8125 1012.1875 L 381.476562 1012.1875 Z M 381.476562 530.839844 "/></clipPath><clipPath xml:id="clip6" id="clip6"><path d="M 382 578 L 1102.8125 578 L 1102.8125 955 L 382 955 Z M 382 578 "/></clipPath><clipPath xml:id="clip7" id="clip7"><path d="M 389 530.839844 L 1097 530.839844 L 1097 948 L 389 948 Z M 389 530.839844 "/></clipPath><clipPath xml:id="clip8" id="clip8"><path d="M 574 549 L 1102.8125 549 L 1102.8125 1003 L 574 1003 Z M 574 549 "/></clipPath></defs><g xml:id="surface1" id="surface1"><g clip-rule="nonzero" clip-path="url(#clip1)"><path style=" stroke:none;fill-rule:nonzero;fill:rgb(92.939758%,59.609985%,43.919373%);fill-opacity:1;" d="M 752.25 300.832031 L 408.269531 102.34375 L 63.898438 300.832031 L 57.472656 304.636719 L 57.472656 359.566406 L 119.855469 395.65625 C 109.558594 395 102.460938 395.59375 98.589844 397.457031 C 93.105469 399.730469 88.65625 404.207031 87.058594 410.898438 C 86.792969 412.367188 85.554688 413.902344 85.554688 415.5 L 85.554688 421.71875 L 86.652344 479.660156 C 86.933594 482.742188 88.046875 485.671875 89.109375 488.492188 C 90.992188 495.304688 94.816406 501.382812 100.171875 506.742188 L 103.292969 509.339844 C 106.363281 512.003906 110.234375 514.679688 114.777344 517.359375 C 128.816406 524.972656 143.953125 528.792969 160.140625 528.792969 C 172.441406 528.792969 181.8125 526.179688 188.238281 520.960938 C 188.238281 520.835938 188.441406 520.695312 188.832031 520.570312 C 192.578125 516.953125 196.132812 510.546875 199.472656 501.320312 C 201.070312 497.042969 202.746094 493.175781 204.488281 489.683594 C 206.101562 486.613281 207.761719 484.152344 209.5 482.273438 C 214.859375 476.792969 223.335938 474.050781 234.980469 474.050781 C 239.257812 474.050781 249.019531 475.726562 264.265625 479.0625 L 408.363281 561.875 L 570.9375 468.238281 L 570.9375 412.101562 C 570.9375 409.832031 570.230469 407.828125 569.839844 406.089844 C 568.492188 398.460938 564.699219 393.179688 558.949219 390.253906 C 554.53125 388.246094 545.785156 386.773438 532.953125 385.835938 C 523.582031 385.570312 516.4375 384.566406 511.628906 382.828125 C 513.773438 381.089844 516.484375 379.226562 519.824219 377.21875 C 522.769531 375.75 526.355469 374.007812 530.632812 372.003906 C 549.359375 364.109375 567.003906 360.179688 583.582031 360.179688 C 595.207031 360.179688 602.902344 363.453125 606.632812 370 C 607.304688 371.332031 607.980469 373.335938 608.636719 376.015625 C 609.703125 379.898438 610.785156 385.097656 611.851562 391.644531 C 613.996094 401.40625 617.539062 408.625 622.488281 413.308594 C 628.367188 418.242188 638.066406 421.328125 649.957031 422.519531 L 759.472656 359.566406 L 759.472656 304.636719 L 752.25 300.832031 "/></g><g clip-rule="nonzero" clip-path="url(#clip2)"><path style=" stroke:none;fill-rule:evenodd;fill:rgb(98.81897%,31.759644%,20.779419%);fill-opacity:1;" d="M 204.488281 489.683594 L 204.488281 434.75 C 206.101562 431.539062 207.761719 429.082031 209.5 427.34375 C 214.859375 421.859375 223.335938 419.121094 234.980469 419.121094 C 239.257812 419.121094 249.019531 420.71875 264.265625 423.929688 L 264.265625 479.0625 C 249.019531 475.726562 239.257812 474.050781 234.980469 474.050781 C 223.335938 474.050781 214.859375 476.792969 209.5 482.273438 C 207.761719 484.152344 206.101562 486.613281 204.488281 489.683594 Z M 407.863281 506.742188 L 569.933594 413.105469 L 569.933594 468.238281 L 407.863281 561.875 Z M 608.839844 321.679688 L 608.636719 376.015625 C 607.980469 373.335938 607.304688 371.332031 606.632812 370 C 602.902344 363.453125 595.207031 360.179688 583.566406 360.179688 C 566.988281 360.179688 549.34375 364.109375 530.617188 372.003906 C 526.339844 374.007812 522.738281 375.75 519.789062 377.21875 C 516.4375 379.226562 513.710938 381.089844 511.5625 382.828125 C 509.558594 382.027344 508.085938 381.230469 507.160156 380.414062 C 499.390625 375.890625 495.519531 367.195312 495.519531 354.351562 C 495.519531 353.429688 495.660156 352.425781 495.925781 351.34375 C 497.132812 337.984375 508.695312 326.488281 530.617188 316.871094 C 542.652344 311.921875 554.359375 308.582031 565.71875 306.84375 C 572.003906 305.78125 577.957031 305.230469 583.566406 305.230469 C 595.207031 305.230469 602.902344 308.519531 606.632812 315.070312 C 607.304688 316.539062 608.042969 318.734375 608.839844 321.679688 Z M 757.875 304.636719 L 757.875 359.566406 L 649.160156 422.519531 L 649.160156 367.585938 L 757.875 304.636719 "/></g><g clip-rule="nonzero" clip-path="url(#clip3)"><path style=" stroke:none;fill-rule:evenodd;fill:rgb(98.81897%,31.759644%,20.779419%);fill-opacity:1;" d="M 63.695312 300.832031 L 156.144531 353.960938 C 156.695312 355.558594 157.226562 357.5625 157.757812 359.976562 C 158.027344 361.714844 158.152344 363.1875 158.152344 364.375 L 158.152344 367.585938 C 158.152344 368.261719 158.027344 368.871094 157.757812 369.390625 C 157.492188 367.257812 156.960938 364.644531 156.144531 361.574219 L 57.472656 304.636719 Z M 569.933594 413.105469 L 407.863281 506.742188 L 264.265625 423.929688 C 249.019531 420.71875 239.257812 419.121094 234.980469 419.121094 C 223.335938 419.121094 214.859375 421.859375 209.5 427.34375 C 207.761719 429.082031 206.101562 431.539062 204.488281 434.75 C 202.886719 437.820312 201.210938 441.707031 199.472656 446.390625 C 196.132812 455.472656 192.59375 461.816406 188.847656 465.4375 C 188.441406 465.5625 188.175781 465.890625 188.050781 466.4375 C 181.625 471.511719 172.332031 474.050781 160.15625 474.050781 L 157.964844 474.050781 C 142.574219 473.644531 128.207031 469.773438 114.839844 462.429688 C 108.949219 459.34375 104.136719 455.804688 100.394531 451.792969 C 94.515625 445.246094 90.628906 437.898438 88.765625 429.738281 L 88.5625 428.535156 C 87.886719 426.402344 87.496094 424.132812 87.355469 421.71875 L 87.355469 415.5 C 87.496094 417.507812 87.96875 419.714844 88.765625 422.128906 C 89.300781 424.664062 90.097656 427.265625 91.164062 429.941406 C 93.308594 435.160156 96.382812 439.90625 100.394531 444.179688 C 104.136719 448.191406 108.949219 451.730469 114.839844 454.800781 C 127.265625 461.878906 140.570312 465.828125 154.75 466.625 L 160.15625 466.625 C 172.863281 466.625 182.421875 463.761719 188.847656 458.011719 C 192.59375 454.269531 196.132812 447.925781 199.472656 438.964844 C 202.824219 429.738281 206.164062 423.394531 209.5 419.917969 C 214.859375 414.3125 223.335938 411.492188 234.980469 411.492188 C 239.257812 411.492188 249.019531 413.230469 264.265625 416.707031 L 407.863281 499.316406 L 569.339844 406.089844 C 569.730469 407.828125 569.933594 409.832031 569.933594 412.101562 Z M 649.160156 367.585938 C 637.390625 366.257812 628.507812 363.1875 622.488281 358.363281 C 617.539062 353.835938 613.996094 346.597656 611.851562 336.714844 L 611.253906 333.113281 C 610.582031 329.371094 609.78125 325.5625 608.839844 321.679688 C 608.042969 318.734375 607.304688 316.539062 606.632812 315.070312 C 602.902344 308.519531 595.207031 305.230469 583.566406 305.230469 C 577.957031 305.230469 572.003906 305.78125 565.71875 306.84375 C 554.359375 308.582031 542.652344 311.921875 530.617188 316.871094 C 508.695312 326.488281 497.132812 337.984375 495.925781 351.34375 C 495.660156 349.886719 495.519531 348.414062 495.519531 346.945312 C 495.519531 332.234375 507.222656 319.816406 530.617188 309.648438 C 538.65625 306.296875 546.289062 303.679688 553.480469 301.832031 C 554.296875 301.628906 555.09375 301.425781 555.894531 301.222656 C 565.515625 298.949219 574.746094 297.824219 583.566406 297.824219 C 591.070312 297.824219 596.933594 299.15625 601.117188 301.832031 C 603.46875 303.304688 605.316406 305.167969 606.632812 307.441406 C 607.445312 309.585938 608.167969 311.859375 608.839844 314.253906 C 609.78125 317.730469 610.785156 322.617188 611.851562 328.898438 C 612.382812 331.03125 612.851562 332.847656 613.261719 334.304688 C 615.390625 341.523438 618.476562 346.945312 622.488281 350.546875 C 628.367188 355.761719 637.25 358.972656 649.160156 360.179688 L 751.449219 300.832031 L 757.875 304.636719 L 649.160156 367.585938 "/></g><path style=" stroke:none;fill-rule:evenodd;fill:rgb(100%,74.119568%,34.899902%);fill-opacity:1;" d="M 157.757812 369.390625 C 158.027344 368.871094 158.152344 368.261719 158.152344 367.585938 L 158.152344 364.375 C 158.152344 363.1875 158.027344 361.714844 157.757812 359.976562 C 157.226562 357.5625 156.695312 355.558594 156.144531 353.960938 L 63.695312 300.832031 L 407.863281 102.34375 L 751.449219 300.832031 L 649.160156 360.179688 C 637.25 358.972656 628.367188 355.761719 622.488281 350.546875 C 618.476562 346.945312 615.390625 341.523438 613.261719 334.304688 C 612.851562 332.847656 612.382812 331.03125 611.851562 328.898438 C 610.785156 322.617188 609.78125 317.730469 608.839844 314.253906 C 608.167969 311.859375 607.445312 309.585938 606.632812 307.441406 C 605.316406 305.167969 603.46875 303.304688 601.117188 301.832031 C 596.933594 299.15625 591.070312 297.824219 583.566406 297.824219 C 574.746094 297.824219 565.515625 298.949219 555.894531 301.222656 C 555.09375 301.425781 554.296875 301.628906 553.480469 301.832031 C 546.289062 303.679688 538.65625 306.296875 530.617188 309.648438 C 507.222656 319.816406 495.519531 332.234375 495.519531 346.945312 C 495.519531 348.414062 495.660156 349.886719 495.925781 351.34375 C 495.660156 352.425781 495.519531 353.429688 495.519531 354.351562 C 495.519531 367.195312 499.390625 375.890625 507.160156 380.414062 C 508.085938 381.230469 509.558594 382.027344 511.5625 382.828125 C 516.375 384.566406 523.457031 385.570312 532.828125 385.835938 C 545.660156 386.773438 554.296875 388.246094 558.699219 390.253906 C 564.449219 393.179688 567.992188 398.460938 569.339844 406.089844 L 407.863281 499.316406 L 264.265625 416.707031 C 249.019531 413.230469 239.257812 411.492188 234.980469 411.492188 C 223.335938 411.492188 214.859375 414.3125 209.5 419.917969 C 206.164062 423.394531 202.824219 429.738281 199.472656 438.964844 C 196.132812 447.925781 192.59375 454.269531 188.847656 458.011719 C 182.421875 463.761719 172.863281 466.625 160.15625 466.625 L 154.75 466.625 C 140.570312 465.828125 127.265625 461.878906 114.839844 454.800781 C 108.949219 451.730469 104.136719 448.191406 100.394531 444.179688 C 96.382812 439.90625 93.308594 435.160156 91.164062 429.941406 C 90.097656 427.265625 89.300781 424.664062 88.765625 422.128906 C 87.96875 419.714844 87.496094 417.507812 87.355469 415.5 C 87.496094 413.902344 87.683594 412.367188 87.96875 410.898438 C 89.566406 404.207031 93.105469 399.730469 98.589844 397.457031 C 102.460938 395.59375 109.558594 395 119.855469 395.65625 L 122.863281 395.65625 C 131.152344 396.1875 137.5 396.125 141.917969 395.453125 C 143.921875 394.9375 145.726562 394.324219 147.324219 393.652344 C 153.875 390.707031 157.492188 384.566406 158.152344 375.214844 L 158.152344 372.003906 C 158.152344 371.332031 158.027344 370.46875 157.757812 369.390625 "/><g clip-rule="nonzero" clip-path="url(#clip4)"><path style=" stroke:none;fill-rule:evenodd;fill:rgb(100%,56.858826%,30.198669%);fill-opacity:1;" d="M 57.472656 304.636719 L 156.144531 361.574219 C 156.960938 364.644531 157.492188 367.257812 157.757812 369.390625 C 158.027344 370.46875 158.152344 371.332031 158.152344 372.003906 L 158.152344 375.214844 C 157.492188 384.566406 153.875 390.707031 147.324219 393.652344 C 145.726562 394.324219 143.921875 394.9375 141.917969 395.453125 C 137.5 396.125 131.152344 396.1875 122.863281 395.65625 L 119.855469 395.65625 L 57.472656 359.566406 Z M 204.488281 434.75 L 204.488281 489.683594 C 202.746094 493.175781 201.085938 497.042969 199.472656 501.320312 C 196.132812 510.546875 192.59375 516.953125 188.847656 520.570312 C 188.441406 520.695312 188.238281 520.835938 188.238281 520.960938 C 181.828125 526.179688 172.472656 528.792969 160.15625 528.792969 C 143.984375 528.792969 128.878906 524.972656 114.839844 517.359375 C 110.296875 514.679688 106.472656 512.003906 103.402344 509.339844 L 100.394531 506.742188 C 95.050781 501.382812 91.429688 495.304688 89.566406 488.492188 C 88.5 485.671875 87.824219 482.742188 87.558594 479.660156 L 87.355469 421.71875 C 87.496094 424.132812 87.886719 426.402344 88.5625 428.535156 L 88.765625 429.738281 C 90.628906 437.898438 94.515625 445.246094 100.394531 451.792969 C 104.136719 455.804688 108.949219 459.34375 114.839844 462.429688 C 128.207031 469.773438 142.574219 473.644531 157.964844 474.050781 L 160.15625 474.050781 C 172.332031 474.050781 181.625 471.511719 188.050781 466.4375 C 188.175781 465.890625 188.441406 465.5625 188.847656 465.4375 C 192.59375 461.816406 196.132812 455.472656 199.472656 446.390625 C 201.210938 441.707031 202.886719 437.820312 204.488281 434.75 Z M 264.265625 479.0625 L 264.265625 423.929688 L 407.863281 506.742188 L 407.863281 561.875 Z M 608.636719 376.015625 L 608.839844 321.679688 C 609.78125 325.5625 610.582031 329.371094 611.253906 333.113281 L 611.851562 336.714844 C 613.996094 346.597656 617.539062 353.835938 622.488281 358.363281 C 628.507812 363.1875 637.390625 366.257812 649.160156 367.585938 L 649.160156 422.519531 C 637.25 421.328125 628.367188 418.242188 622.488281 413.308594 C 617.539062 408.625 613.996094 401.40625 611.851562 391.644531 C 610.785156 385.097656 609.703125 379.898438 608.636719 376.015625 "/></g><g clip-rule="nonzero" clip-path="url(#clip5)"><path style=" stroke:none;fill-rule:nonzero;fill:rgb(92.939758%,59.609985%,43.919373%);fill-opacity:1;" d="M 388.792969 734.46875 L 474.210938 685.488281 C 475.921875 680.820312 479.003906 676.378906 483.203125 672.164062 C 484.910156 670.457031 486.914062 668.804688 489.074219 667.21875 C 488.261719 666.992188 487.621094 666.765625 487.046875 666.539062 C 486.246094 666.191406 485.578125 665.792969 485.003906 665.339844 C 478.855469 661.816406 475.121094 655.84375 473.746094 647.414062 L 472.890625 642.988281 L 473.746094 591.085938 L 473.585938 590.40625 C 473.34375 588.925781 473.183594 587.339844 473.066406 585.632812 L 472.890625 578.980469 C 473.800781 572.03125 477.28125 565.605469 483.3125 559.683594 C 489.355469 553.761719 497.945312 548.363281 509.097656 543.46875 C 517.742188 539.828125 526.800781 537.105469 536.246094 535.28125 C 545.585938 533.453125 555.308594 532.546875 565.449219 532.546875 L 568.691406 532.71875 L 569.039062 532.546875 C 573.480469 532.546875 577.003906 535.214844 579.617188 540.574219 C 579.964844 541.375 580.3125 542.226562 580.644531 543.132812 C 580.882812 543.933594 581.042969 544.789062 581.164062 545.695312 C 581.269531 546.828125 580.75 548.136719 580.644531 549.613281 C 580.644531 549.960938 579.964844 550.296875 579.964844 550.640625 L 579.964844 581.367188 L 581.164062 581.367188 C 586.96875 584.78125 594.425781 588.421875 603.523438 590.925781 C 607.511719 591.941406 611.78125 592.6875 616.332031 593.488281 C 620.894531 594.167969 625.722656 594.703125 630.84375 595.273438 L 742.691406 530.878906 L 1096.164062 734.496094 L 1102.488281 738.402344 L 1102.488281 794.902344 L 742.867188 1001.265625 L 742.53125 1001.265625 L 649.628906 948.429688 C 647.8125 947.40625 644.171875 945.777344 638.703125 942.921875 L 616.851562 931.640625 C 607.511719 926.867188 598.8125 924.546875 590.714844 924.546875 C 583.085938 924.546875 575.988281 926.75 569.371094 931.070312 L 569.890625 983.488281 C 569.785156 985.195312 569.542969 986.917969 569.210938 988.625 C 567.957031 993.398438 565.222656 997.558594 561.007812 1001.09375 L 560.152344 1002.277344 C 559.367188 1002.851562 558.617188 1001.265625 557.9375 1004.679688 L 557.765625 1004.679688 C 549.332031 1008.09375 537.902344 1012.1875 523.441406 1012.1875 C 517.183594 1012.1875 509.046875 1009.625 499.027344 1005.1875 C 488.675781 1000.519531 478.65625 994.492188 468.96875 987.4375 C 457.816406 979.355469 449.226562 971.195312 443.183594 963.113281 C 440.902344 960.046875 438.980469 956.925781 437.378906 953.859375 L 435.84375 950.925781 C 434.925781 948.765625 434.257812 946.65625 433.789062 944.605469 C 433.21875 942.550781 432.816406 940.496094 432.601562 938.457031 C 432.484375 937.203125 432.429688 935.949219 432.429688 934.695312 C 432.429688 933.335938 432.816406 932.015625 432.9375 930.761719 L 433.109375 879.554688 L 433.109375 877.515625 C 433.109375 876.367188 432.484375 874.953125 432.601562 874.953125 L 432.761719 874.953125 C 432.882812 874.953125 433.003906 873.394531 433.109375 872.820312 C 434.03125 866.328125 436.527344 860.003906 440.621094 854.085938 C 446.089844 846.003906 452.1875 841.894531 458.898438 841.894531 L 463.765625 842.042969 L 381.882812 795.0625 L 381.882812 738.402344 L 388.792969 734.46875 "/></g><path style=" stroke:none;fill-rule:evenodd;fill:rgb(69.40918%,78.819275%,89.7995%);fill-opacity:1;" d="M 489.113281 667.21875 C 486.964844 668.804688 485.019531 670.457031 483.3125 672.164062 C 479.109375 676.378906 476.148438 680.820312 474.441406 685.488281 L 501.242188 670.125 C 498.851562 669.777344 496.746094 669.390625 494.929688 668.925781 C 492.984375 668.472656 491.234375 667.953125 489.632812 667.390625 C 489.40625 667.390625 489.234375 667.339844 489.113281 667.21875 "/><g clip-rule="nonzero" clip-path="url(#clip6)"><path style=" stroke:none;fill-rule:evenodd;fill:rgb(81.17981%,87.838745%,96.078491%);fill-opacity:1;" d="M 472.890625 578.980469 L 473.066406 585.632812 C 473.183594 587.339844 473.34375 588.925781 473.585938 590.40625 L 473.746094 591.085938 L 473.917969 591.085938 L 475.453125 596.726562 C 475.90625 597.96875 476.480469 599.222656 477.160156 600.476562 L 478.363281 602.355469 C 478.921875 603.261719 479.5625 604.183594 480.242188 605.089844 C 481.03125 605.890625 481.84375 606.625 482.628906 607.304688 L 482.976562 607.304688 C 483.65625 607.757812 484.40625 608.210938 485.191406 608.675781 C 486.21875 609.582031 487.753906 610.316406 489.808594 610.890625 C 490.941406 611.238281 492.195312 611.570312 493.554688 611.917969 C 494.929688 612.265625 496.464844 612.597656 498.171875 612.945312 C 500 613.171875 502.042969 613.449219 504.324219 613.796875 C 506.484375 614.023438 508.804688 614.183594 511.3125 614.304688 L 517.808594 614.824219 C 520.304688 615.039062 522.707031 615.332031 524.972656 615.679688 C 527.136719 615.890625 529.136719 616.238281 530.949219 616.691406 L 531.976562 616.863281 C 534.257812 617.4375 536.125 618.117188 537.621094 618.917969 C 542.398438 621.183594 545.8125 625.011719 547.867188 630.347656 L 549.226562 635.132812 L 549.402344 634.613281 C 549.402344 623.011719 545.464844 615.277344 537.621094 611.410156 C 533.070312 609.238281 524.292969 607.757812 511.3125 606.96875 L 510.804688 606.96875 C 501.585938 606.398438 494.53125 605.261719 489.632812 603.554688 C 488.605469 603.210938 487.753906 602.875 487.074219 602.527344 C 486.273438 602.183594 485.59375 601.78125 485.019531 601.328125 C 478.867188 597.808594 475.121094 591.835938 473.746094 583.40625 L 473.585938 582.898438 C 473.238281 581.644531 473.011719 580.339844 472.890625 578.980469 Z M 389.21875 734.46875 L 382.734375 738.402344 L 382.734375 738.574219 L 382.910156 738.402344 L 508.925781 811.277344 L 508.925781 803.945312 L 389.21875 734.640625 Z M 432.761719 874.433594 L 432.601562 874.433594 C 432.484375 875.355469 432.429688 876.367188 432.429688 877.515625 L 432.429688 879.554688 L 432.601562 879.394531 L 432.761719 879.554688 C 433.003906 888.542969 436.59375 897.597656 443.53125 906.707031 C 444.554688 908.066406 445.625 909.425781 446.769531 910.800781 C 452.574219 917.398438 460.03125 924.054688 469.144531 930.761719 L 476.308594 935.550781 L 499.199219 948.003906 L 512.6875 952.792969 C 514.726562 953.351562 516.675781 953.804688 518.488281 954.152344 C 520.199219 954.5 521.851562 954.660156 523.441406 954.660156 C 537.78125 954.550781 549.171875 951.871094 557.589844 946.644531 L 557.765625 946.472656 C 563.914062 942.710938 567.664062 937.988281 569.039062 932.308594 L 569.210938 931.109375 L 569.210938 930.933594 C 569.425781 929.683594 569.542969 928.269531 569.542969 926.667969 C 569.542969 926.214844 569.425781 925.640625 569.210938 924.960938 C 568.863281 926.335938 568.410156 927.574219 567.835938 928.722656 C 567.261719 929.855469 566.648438 930.988281 565.957031 932.136719 C 565.050781 933.269531 564.089844 934.347656 563.0625 935.375 C 562.035156 936.28125 560.832031 937.257812 559.472656 938.28125 L 557.9375 939.136719 L 557.765625 939.136719 C 549.332031 944.363281 537.902344 947.042969 523.441406 947.152344 C 517.183594 947.042969 509.046875 944.871094 499.027344 940.671875 C 488.78125 936.003906 478.761719 930.136719 468.96875 923.082031 C 465.554688 920.585938 462.367188 918.082031 459.40625 915.574219 C 456.335938 912.960938 453.601562 910.398438 451.214844 907.890625 C 449.734375 906.410156 448.304688 904.933594 446.945312 903.453125 C 445.570312 901.863281 444.382812 900.382812 443.355469 899.023438 C 437.886719 892.078125 434.523438 885.195312 433.285156 878.367188 C 432.9375 876.996094 432.761719 875.6875 432.761719 874.433594 Z M 742.691406 945.964844 L 1102.316406 738.402344 L 1102.488281 738.402344 L 1096.164062 734.46875 L 1096.164062 734.640625 L 742.867188 938.617188 L 649.800781 884.847656 C 643.089844 880.863281 631.085938 875.40625 613.769531 868.460938 C 601.601562 863.566406 591.863281 861.125 584.578125 861.125 C 583.085938 861.125 581.671875 861.230469 580.3125 861.472656 C 579.054688 861.699219 577.855469 862.03125 576.722656 862.484375 C 569.316406 865.339844 564.300781 868.058594 561.6875 870.6875 C 559.074219 873.300781 557.765625 878.59375 557.765625 886.554688 C 557.765625 886.902344 557.832031 887.300781 557.9375 887.757812 C 557.9375 887.074219 557.992188 886.382812 558.113281 885.703125 C 558.324219 884.570312 558.566406 883.59375 558.792969 882.808594 L 559.472656 881.433594 C 559.925781 880.074219 560.621094 878.996094 561.527344 878.195312 C 564.140625 875.582031 569.039062 873.019531 576.203125 870.511719 C 577.109375 870.167969 578.148438 869.941406 579.285156 869.832031 C 580.417969 869.714844 581.738281 869.660156 583.207031 869.660156 C 590.382812 869.539062 600.402344 871.875 613.261719 876.660156 C 630.792969 883.140625 642.972656 888.316406 649.800781 892.195312 L 742.691406 945.964844 "/></g><g clip-rule="nonzero" clip-path="url(#clip7)"><path style=" stroke:none;fill-rule:evenodd;fill:rgb(30.589294%,59.999084%,94.509888%);fill-opacity:1;" d="M 472.890625 578.980469 C 473.011719 580.339844 473.238281 581.644531 473.585938 582.898438 L 473.746094 583.40625 C 475.121094 591.835938 478.867188 597.808594 485.019531 601.328125 C 485.59375 601.78125 486.273438 602.183594 487.074219 602.527344 C 487.753906 602.875 488.605469 603.210938 489.632812 603.554688 C 494.53125 605.261719 501.585938 606.398438 510.804688 606.96875 L 511.3125 606.96875 C 524.292969 607.757812 533.070312 609.238281 537.621094 611.410156 C 545.464844 615.277344 549.402344 623.011719 549.402344 634.613281 L 549.226562 635.132812 L 549.226562 635.308594 L 549.574219 638.199219 L 549.574219 642.292969 L 501.585938 670.125 C 501.480469 670.125 501.359375 670.125 501.242188 670.125 L 474.441406 685.488281 L 389.21875 734.46875 L 389.21875 734.640625 L 508.925781 803.945312 L 508.925781 811.277344 L 509.097656 811.277344 L 509.273438 818.960938 C 508.804688 832.054688 503.414062 839.789062 493.050781 842.175781 C 491.675781 842.402344 490.089844 842.578125 488.261719 842.695312 C 486.445312 842.804688 484.511719 842.855469 482.457031 842.855469 L 464.699219 842.351562 L 464.195312 842.003906 L 458.898438 841.84375 C 452.1875 841.84375 446.089844 845.871094 440.621094 853.953125 C 436.527344 859.871094 434.03125 866.074219 433.109375 872.566406 C 433.003906 873.128906 432.882812 873.753906 432.761719 874.433594 C 432.761719 875.6875 432.9375 876.996094 433.285156 878.367188 C 434.523438 885.195312 437.886719 892.078125 443.355469 899.023438 C 444.382812 900.382812 445.570312 901.863281 446.945312 903.453125 C 448.304688 904.933594 449.734375 906.410156 451.214844 907.890625 C 453.601562 910.398438 456.335938 912.960938 459.40625 915.574219 C 462.367188 918.082031 465.554688 920.585938 468.96875 923.082031 C 478.761719 930.136719 488.78125 936.003906 499.027344 940.671875 C 509.046875 944.871094 517.183594 947.042969 523.441406 947.152344 C 537.902344 947.042969 549.332031 944.363281 557.765625 939.136719 L 557.9375 939.136719 L 559.472656 938.28125 C 560.832031 937.257812 562.035156 936.28125 563.0625 935.375 C 564.089844 934.347656 565.050781 933.269531 565.957031 932.136719 C 566.648438 930.988281 567.261719 929.855469 567.835938 928.722656 C 568.410156 927.574219 568.863281 926.335938 569.210938 924.960938 L 569.039062 924.789062 C 568.570312 923.535156 567.902344 921.949219 566.984375 920.015625 C 566.078125 917.960938 564.890625 915.625 563.394531 913.011719 C 560.097656 906.304688 558.21875 900.890625 557.765625 896.796875 C 557.539062 895.890625 557.417969 895.089844 557.417969 894.410156 L 557.417969 894.0625 C 557.417969 892.355469 557.539062 890.714844 557.765625 889.117188 C 557.765625 888.664062 557.832031 888.210938 557.9375 887.757812 C 557.832031 887.300781 557.765625 886.902344 557.765625 886.554688 C 557.765625 878.59375 559.074219 873.300781 561.6875 870.6875 C 564.300781 868.058594 569.316406 865.339844 576.722656 862.484375 C 577.855469 862.03125 579.054688 861.699219 580.3125 861.472656 C 581.671875 861.230469 583.085938 861.125 584.578125 861.125 C 591.863281 861.125 601.601562 863.566406 613.769531 868.460938 C 631.085938 875.40625 643.089844 880.863281 649.800781 884.847656 L 742.867188 938.617188 L 1096.164062 734.640625 L 1096.164062 734.46875 L 742.691406 530.839844 L 630.84375 595.195312 C 625.722656 594.621094 620.894531 593.996094 616.332031 593.316406 C 611.78125 592.515625 607.511719 591.609375 603.523438 590.582031 C 594.425781 588.074219 586.96875 584.78125 581.164062 580.6875 L 580.992188 580.6875 L 580.992188 580.847656 L 580.816406 580.847656 L 578.761719 579.3125 C 573.535156 574.3125 573.027344 567.9375 577.230469 560.203125 C 578.257812 558.257812 579.054688 556.390625 579.617188 554.5625 C 580.191406 552.734375 580.589844 551.027344 580.816406 549.441406 L 580.992188 549.441406 L 580.992188 550.640625 C 581.109375 550.296875 581.164062 549.960938 581.164062 549.613281 C 581.269531 548.136719 581.269531 546.828125 581.164062 545.695312 C 581.042969 544.789062 580.882812 543.933594 580.644531 543.132812 C 580.3125 542.226562 579.964844 541.375 579.617188 540.574219 C 577.003906 535.214844 573.480469 532.546875 569.039062 532.546875 L 568.691406 532.71875 L 565.449219 532.546875 C 555.308594 532.546875 545.585938 533.453125 536.246094 535.28125 C 526.800781 537.105469 517.742188 539.828125 509.097656 543.46875 C 497.945312 548.363281 489.355469 553.761719 483.3125 559.683594 C 477.28125 565.605469 473.800781 572.03125 472.890625 578.980469 "/></g><path style=" stroke:none;fill-rule:evenodd;fill:rgb(12.159729%,40.779114%,74.899292%);fill-opacity:1;" d="M 489.113281 667.21875 C 489.234375 667.339844 489.40625 667.390625 489.632812 667.390625 C 491.234375 667.953125 492.984375 668.472656 494.929688 668.925781 C 496.746094 669.390625 498.851562 669.777344 501.242188 670.125 C 501.359375 670.125 501.480469 670.125 501.585938 670.125 L 549.574219 642.292969 L 549.574219 638.199219 L 549.226562 635.308594 L 549.226562 635.132812 L 547.867188 630.347656 C 545.8125 625.011719 542.398438 621.183594 537.621094 618.917969 C 536.125 618.117188 534.257812 617.4375 531.976562 616.863281 L 530.949219 616.691406 C 529.136719 616.238281 527.136719 615.890625 524.972656 615.679688 C 522.707031 615.332031 520.304688 615.039062 517.808594 614.824219 L 511.3125 614.304688 C 508.804688 614.183594 506.484375 614.023438 504.324219 613.796875 C 502.042969 613.449219 500 613.171875 498.171875 612.945312 C 496.464844 612.597656 494.929688 612.265625 493.554688 611.917969 C 492.195312 611.570312 490.941406 611.238281 489.808594 610.890625 C 487.753906 610.316406 486.21875 609.582031 485.191406 608.675781 C 484.40625 608.210938 483.65625 607.757812 482.976562 607.304688 L 482.628906 607.304688 C 481.84375 606.625 481.03125 605.890625 480.242188 605.089844 C 479.5625 604.183594 478.921875 603.261719 478.363281 602.355469 L 477.160156 600.476562 C 476.480469 599.222656 475.90625 597.96875 475.453125 596.726562 L 473.917969 591.085938 L 473.746094 591.085938 L 472.890625 642.988281 L 473.746094 647.414062 C 475.121094 655.84375 478.867188 661.816406 485.019531 665.339844 C 485.59375 665.792969 486.273438 666.191406 487.074219 666.539062 C 487.648438 666.765625 488.3125 666.992188 489.113281 667.21875 Z M 508.925781 811.277344 L 382.910156 738.402344 L 382.734375 738.574219 L 382.734375 795.0625 L 464.195312 842.003906 L 464.699219 842.351562 L 482.457031 842.855469 C 484.511719 842.855469 486.445312 842.804688 488.261719 842.695312 C 490.089844 842.578125 491.675781 842.402344 493.050781 842.175781 C 503.414062 839.789062 508.804688 832.054688 509.273438 818.960938 L 509.097656 811.277344 Z M 569.210938 924.960938 C 569.425781 925.640625 569.542969 926.214844 569.542969 926.667969 C 569.542969 928.269531 569.425781 929.683594 569.210938 930.933594 L 569.210938 931.109375 L 569.039062 932.308594 C 567.664062 937.988281 563.914062 942.710938 557.765625 946.472656 L 557.589844 946.644531 C 549.171875 951.871094 537.78125 954.550781 523.441406 954.660156 C 521.851562 954.660156 520.199219 954.5 518.488281 954.152344 C 516.675781 953.804688 514.726562 953.351562 512.6875 952.792969 L 499.199219 948.003906 L 476.308594 935.550781 L 469.144531 930.761719 C 460.03125 924.054688 452.574219 917.398438 446.769531 910.800781 C 445.625 909.425781 444.554688 908.066406 443.53125 906.707031 C 436.59375 897.597656 433.003906 888.542969 432.761719 879.554688 L 432.601562 879.394531 L 432.429688 879.554688 L 432.601562 930.761719 C 432.484375 932.015625 432.429688 933.324219 432.429688 934.695312 C 432.429688 935.949219 432.484375 937.191406 432.601562 938.441406 C 432.816406 940.496094 433.21875 942.550781 433.789062 944.589844 C 434.257812 946.644531 434.925781 948.75 435.84375 950.910156 L 437.378906 953.804688 C 438.980469 956.886719 440.902344 959.953125 443.183594 963.035156 C 449.226562 971.101562 457.816406 979.183594 468.96875 987.261719 C 478.65625 994.316406 488.675781 1000.183594 499.027344 1004.851562 C 509.046875 1009.28125 517.183594 1011.507812 523.441406 1011.507812 C 537.902344 1011.507812 549.332031 1008.773438 557.765625 1003.304688 L 557.9375 1003.304688 C 558.617188 1002.746094 559.367188 1002.171875 560.152344 1001.597656 L 561.007812 1001.09375 C 565.222656 997.558594 567.957031 993.410156 569.210938 988.636719 C 569.542969 986.929688 569.785156 985.222656 569.890625 983.515625 L 569.371094 931.109375 C 575.988281 926.789062 583.085938 924.628906 590.714844 924.628906 C 598.8125 924.628906 607.511719 927.015625 616.851562 931.789062 L 638.703125 943.230469 C 644.171875 946.070312 647.8125 948.003906 649.628906 949.03125 L 742.53125 1002.453125 L 742.53125 945.964844 L 742.691406 945.964844 L 649.800781 892.195312 C 642.972656 888.316406 630.792969 883.140625 613.261719 876.660156 C 600.402344 871.875 590.382812 869.539062 583.207031 869.660156 C 581.738281 869.660156 580.417969 869.714844 579.285156 869.832031 C 578.148438 869.941406 577.109375 870.167969 576.203125 870.511719 C 569.039062 873.019531 564.140625 875.582031 561.527344 878.195312 C 560.621094 878.996094 559.925781 880.074219 559.472656 881.433594 L 558.792969 882.808594 C 558.566406 883.59375 558.324219 884.570312 558.113281 885.703125 C 557.992188 886.382812 557.9375 887.074219 557.9375 887.757812 C 557.832031 888.210938 557.765625 888.664062 557.765625 889.117188 C 557.539062 890.714844 557.417969 892.355469 557.417969 894.0625 L 557.417969 894.410156 C 557.417969 895.089844 557.539062 895.890625 557.765625 896.796875 C 558.21875 900.890625 560.097656 906.304688 563.394531 913.011719 C 564.890625 915.625 566.078125 917.960938 566.984375 920.015625 C 567.902344 921.949219 568.570312 923.535156 569.039062 924.789062 L 569.210938 924.960938 "/><g clip-rule="nonzero" clip-path="url(#clip8)"><path style=" stroke:none;fill-rule:evenodd;fill:rgb(5.099487%,28.62854%,56.469727%);fill-opacity:1;" d="M 1102.488281 738.402344 L 1102.316406 738.402344 L 742.691406 945.964844 L 742.53125 945.964844 L 742.53125 1002.453125 L 742.867188 1002.453125 L 1102.488281 794.902344 Z M 580.992188 580.6875 L 580.992188 549.441406 L 580.816406 549.441406 C 580.589844 551.027344 580.191406 552.734375 579.617188 554.5625 C 579.054688 556.390625 578.257812 558.257812 577.230469 560.203125 C 573.027344 567.9375 573.535156 574.3125 578.761719 579.3125 L 580.816406 580.847656 L 580.992188 580.847656 L 580.992188 580.6875 "/></g></g></svg>