<?xml version="1.0" encoding="UTF-8"?><svg xmlns="http://www.w3.org/2000/svg" xmlns:xlink="http://www.w3.org/1999/xlink" width="1125pt" zoomAndPan="magnify" viewBox="0 0 1125 1124.99995" height="1124.99995pt" preserveAspectRatio="xMidYMid meet" version="1.2"><defs><clipPath xml:id="clip1" id="clip1"><path d="M 22.707031 209 L 1107.652344 209 L 1107.652344 920.761719 L 22.707031 920.761719 Z M 22.707031 209 "/></clipPath><clipPath xml:id="clip2" id="clip2"><path d="M 249 522 L 1106 522 L 1106 920.121094 L 249 920.121094 Z M 249 522 "/></clipPath><clipPath xml:id="clip3" id="clip3"><path d="M 22.707031 511 L 1106 511 L 1106 835 L 22.707031 835 Z M 22.707031 511 "/></clipPath><clipPath xml:id="clip4" id="clip4"><path d="M 22.707031 522 L 938 522 L 938 920.121094 L 22.707031 920.121094 Z M 22.707031 522 "/></clipPath></defs><g xml:id="surface1" id="surface1"><g clip-rule="nonzero" clip-path="url(#clip1)"><path style=" stroke:none;fill-rule:nonzero;fill:rgb(92.939758%,59.609985%,43.919373%);fill-opacity:1;" d="M 1096.488281 516.164062 L 564.867188 209.019531 L 32.636719 516.164062 L 22.707031 522.054688 L 22.707031 607.058594 L 119.117188 662.902344 C 103.207031 661.886719 92.238281 662.808594 86.253906 665.691406 C 77.777344 669.207031 70.902344 676.136719 68.429688 686.488281 C 68.019531 688.765625 66.105469 691.140625 66.105469 693.613281 L 66.105469 703.238281 L 67.800781 792.894531 C 68.238281 797.667969 69.957031 802.203125 71.605469 806.566406 C 74.507812 817.109375 80.417969 826.511719 88.703125 834.800781 L 93.519531 838.824219 C 98.265625 842.945312 104.25 847.089844 111.273438 851.234375 C 132.972656 863.015625 156.363281 868.929688 181.382812 868.929688 C 200.390625 868.929688 214.875 864.882812 224.804688 856.8125 C 224.804688 856.617188 225.117188 856.398438 225.722656 856.203125 C 231.511719 850.605469 237.007812 840.691406 242.167969 826.414062 C 244.636719 819.796875 247.230469 813.8125 249.917969 808.40625 C 252.410156 803.65625 254.980469 799.851562 257.667969 796.941406 C 265.949219 788.457031 279.050781 784.21875 297.042969 784.21875 C 303.65625 784.21875 318.742188 786.808594 342.308594 791.972656 L 565.011719 920.121094 L 816.269531 775.222656 L 816.269531 688.355469 C 816.269531 684.839844 815.179688 681.738281 814.574219 679.046875 C 812.492188 667.242188 806.628906 659.074219 797.742188 654.542969 C 790.914062 651.4375 777.398438 649.160156 757.566406 647.707031 C 743.082031 647.292969 732.039062 645.742188 724.605469 643.054688 C 727.921875 640.363281 732.113281 637.476562 737.269531 634.375 C 741.824219 632.097656 747.371094 629.40625 753.980469 626.304688 C 782.921875 614.089844 810.191406 608.003906 835.8125 608.003906 C 853.78125 608.003906 865.671875 613.070312 871.4375 623.203125 C 872.476562 625.261719 873.519531 628.363281 874.535156 632.507812 C 876.183594 638.519531 877.855469 646.566406 879.5 656.699219 C 882.816406 671.800781 888.292969 682.972656 895.945312 690.222656 C 905.027344 697.855469 920.015625 702.628906 938.398438 704.472656 L 1107.652344 607.058594 L 1107.652344 522.054688 L 1096.488281 516.164062 "/></g><g clip-rule="nonzero" clip-path="url(#clip2)"><path style=" stroke:none;fill-rule:evenodd;fill:rgb(79.60968%,12.548828%,41.178894%);fill-opacity:1;" d="M 249.917969 808.40625 L 249.917969 723.402344 C 252.410156 718.433594 254.980469 714.628906 257.667969 711.9375 C 265.949219 703.453125 279.050781 699.214844 297.042969 699.214844 C 303.65625 699.214844 318.742188 701.683594 342.308594 706.65625 L 342.308594 791.972656 C 318.742188 786.808594 303.65625 784.21875 297.042969 784.21875 C 279.050781 784.21875 265.949219 788.457031 257.667969 796.941406 C 254.980469 799.851562 252.410156 803.65625 249.917969 808.40625 Z M 564.238281 834.800781 L 814.71875 689.90625 L 814.71875 775.222656 L 564.238281 920.121094 Z M 874.851562 548.425781 L 874.535156 632.507812 C 873.519531 628.363281 872.476562 625.261719 871.4375 623.203125 C 865.671875 613.070312 853.78125 608.003906 835.789062 608.003906 C 810.164062 608.003906 782.898438 614.089844 753.957031 626.304688 C 747.34375 629.40625 741.773438 632.097656 737.222656 634.375 C 732.039062 637.476562 727.824219 640.363281 724.507812 643.054688 C 721.410156 641.816406 719.132812 640.582031 717.703125 639.320312 C 705.691406 632.316406 699.710938 618.863281 699.710938 598.988281 C 699.710938 597.558594 699.925781 596.007812 700.339844 594.335938 C 702.203125 573.660156 720.078125 555.867188 753.957031 540.984375 C 772.554688 533.328125 790.644531 528.164062 808.203125 525.472656 C 817.914062 523.824219 827.117188 522.976562 835.789062 522.976562 C 853.78125 522.976562 865.671875 528.066406 871.4375 538.199219 C 872.476562 540.476562 873.617188 543.871094 874.851562 548.425781 Z M 1105.183594 522.054688 L 1105.183594 607.058594 L 937.164062 704.472656 L 937.164062 619.46875 L 1105.183594 522.054688 "/></g><g clip-rule="nonzero" clip-path="url(#clip3)"><path style=" stroke:none;fill-rule:evenodd;fill:rgb(100%,62.348938%,78.42865%);fill-opacity:1;" d="M 32.324219 516.164062 L 175.207031 598.382812 C 176.054688 600.855469 176.878906 603.957031 177.699219 607.6875 C 178.113281 610.378906 178.304688 612.65625 178.304688 614.5 L 178.304688 619.46875 C 178.304688 620.511719 178.113281 621.457031 177.699219 622.257812 C 177.289062 618.960938 176.464844 614.914062 175.207031 610.160156 L 22.707031 522.054688 Z M 814.71875 689.90625 L 564.238281 834.800781 L 342.308594 706.65625 C 318.742188 701.683594 303.65625 699.214844 297.042969 699.214844 C 279.050781 699.214844 265.949219 703.453125 257.667969 711.9375 C 254.980469 714.628906 252.410156 718.433594 249.917969 723.402344 C 247.445312 728.152344 244.855469 734.164062 242.167969 741.410156 C 237.007812 755.46875 231.535156 765.285156 225.75 770.886719 C 225.117188 771.078125 224.707031 771.589844 224.511719 772.4375 C 214.582031 780.289062 200.222656 784.21875 181.40625 784.21875 L 178.015625 784.21875 C 154.234375 783.585938 132.027344 777.601562 111.367188 766.230469 C 102.261719 761.457031 94.828125 755.980469 89.039062 749.773438 C 79.957031 739.644531 73.953125 728.273438 71.070312 715.648438 L 70.757812 713.78125 C 69.714844 710.484375 69.109375 706.96875 68.890625 703.238281 L 68.890625 693.613281 C 69.109375 696.714844 69.835938 700.132812 71.070312 703.867188 C 71.894531 707.792969 73.128906 711.816406 74.777344 715.960938 C 78.09375 724.03125 82.839844 731.378906 89.039062 737.996094 C 94.828125 744.199219 102.261719 749.675781 111.367188 754.429688 C 130.574219 765.382812 151.132812 771.492188 173.050781 772.726562 L 181.40625 772.726562 C 201.046875 772.726562 215.820312 768.292969 225.75 759.398438 C 231.535156 753.605469 237.007812 743.789062 242.167969 729.921875 C 247.351562 715.648438 252.507812 705.832031 257.667969 700.449219 C 265.949219 691.773438 279.050781 687.410156 297.042969 687.410156 C 303.65625 687.410156 318.742188 690.097656 342.308594 695.480469 L 564.238281 823.3125 L 813.796875 679.046875 C 814.402344 681.738281 814.71875 684.839844 814.71875 688.355469 Z M 937.164062 619.46875 C 918.976562 617.410156 905.242188 612.65625 895.945312 605.191406 C 888.292969 598.1875 882.816406 586.988281 879.5 571.695312 L 878.582031 566.121094 C 877.539062 560.328125 876.304688 554.4375 874.851562 548.425781 C 873.617188 543.871094 872.476562 540.476562 871.4375 538.199219 C 865.671875 528.066406 853.78125 522.976562 835.789062 522.976562 C 827.117188 522.976562 817.914062 523.824219 808.203125 525.472656 C 790.644531 528.164062 772.554688 533.328125 753.957031 540.984375 C 720.078125 555.867188 702.203125 573.660156 700.339844 594.335938 C 699.925781 592.078125 699.710938 589.800781 699.710938 587.523438 C 699.710938 564.761719 717.800781 545.542969 753.957031 529.8125 C 766.378906 524.625 778.175781 520.578125 789.289062 517.714844 C 790.550781 517.402344 791.785156 517.085938 793.019531 516.769531 C 807.890625 513.257812 822.152344 511.511719 835.789062 511.511719 C 847.386719 511.511719 856.445312 513.570312 862.910156 517.714844 C 866.542969 519.996094 869.402344 522.878906 871.4375 526.394531 C 872.695312 529.714844 873.808594 533.230469 874.851562 536.9375 C 876.304688 542.320312 877.855469 549.882812 879.5 559.601562 C 880.324219 562.898438 881.050781 565.707031 881.679688 567.960938 C 884.972656 579.136719 889.746094 587.523438 895.945312 593.097656 C 905.027344 601.167969 918.757812 606.136719 937.164062 608.003906 L 1095.253906 516.164062 L 1105.183594 522.054688 L 937.164062 619.46875 "/></g><path style=" stroke:none;fill-rule:evenodd;fill:rgb(100%,39.608765%,65.489197%);fill-opacity:1;" d="M 177.699219 622.257812 C 178.113281 621.457031 178.304688 620.511719 178.304688 619.46875 L 178.304688 614.5 C 178.304688 612.65625 178.113281 610.378906 177.699219 607.6875 C 176.878906 603.957031 176.054688 600.855469 175.207031 598.382812 L 32.324219 516.164062 L 564.238281 209.019531 L 1095.253906 516.164062 L 937.164062 608.003906 C 918.757812 606.136719 905.027344 601.167969 895.945312 593.097656 C 889.746094 587.523438 884.972656 579.136719 881.679688 567.960938 C 881.050781 565.707031 880.324219 562.898438 879.5 559.601562 C 877.855469 549.882812 876.304688 542.320312 874.851562 536.9375 C 873.808594 533.230469 872.695312 529.714844 871.4375 526.394531 C 869.402344 522.878906 866.542969 519.996094 862.910156 517.714844 C 856.445312 513.570312 847.386719 511.511719 835.789062 511.511719 C 822.152344 511.511719 807.890625 513.257812 793.019531 516.769531 C 791.785156 517.085938 790.550781 517.402344 789.289062 517.714844 C 778.175781 520.578125 766.378906 524.625 753.957031 529.8125 C 717.800781 545.542969 699.710938 564.761719 699.710938 587.523438 C 699.710938 589.800781 699.925781 592.078125 700.339844 594.335938 C 699.925781 596.007812 699.710938 597.558594 699.710938 598.988281 C 699.710938 618.863281 705.691406 632.316406 717.703125 639.320312 C 719.132812 640.582031 721.410156 641.816406 724.507812 643.054688 C 731.941406 645.742188 742.890625 647.292969 757.371094 647.707031 C 777.207031 649.160156 790.550781 651.4375 797.355469 654.542969 C 806.242188 659.074219 811.714844 667.242188 813.796875 679.046875 L 564.238281 823.3125 L 342.308594 695.480469 C 318.742188 690.097656 303.65625 687.410156 297.042969 687.410156 C 279.050781 687.410156 265.949219 691.773438 257.667969 700.449219 C 252.507812 705.832031 247.351562 715.648438 242.167969 729.921875 C 237.007812 743.789062 231.535156 753.605469 225.75 759.398438 C 215.820312 768.292969 201.046875 772.726562 181.40625 772.726562 L 173.050781 772.726562 C 151.132812 771.492188 130.574219 765.382812 111.367188 754.429688 C 102.261719 749.675781 94.828125 744.199219 89.039062 737.996094 C 82.839844 731.378906 78.09375 724.03125 74.777344 715.960938 C 73.128906 711.816406 71.894531 707.792969 71.070312 703.867188 C 69.835938 700.132812 69.109375 696.714844 68.890625 693.613281 C 69.109375 691.140625 69.398438 688.765625 69.835938 686.488281 C 72.304688 676.136719 77.777344 669.207031 86.253906 665.691406 C 92.238281 662.808594 103.207031 661.886719 119.117188 662.902344 L 123.769531 662.902344 C 136.578125 663.726562 146.386719 663.632812 153.214844 662.589844 C 156.316406 661.789062 159.101562 660.84375 161.570312 659.800781 C 171.695312 655.246094 177.289062 645.742188 178.304688 631.273438 L 178.304688 626.304688 C 178.304688 625.261719 178.113281 623.929688 177.699219 622.257812 "/><g clip-rule="nonzero" clip-path="url(#clip4)"><path style=" stroke:none;fill-rule:evenodd;fill:rgb(92.939758%,25.878906%,54.508972%);fill-opacity:1;" d="M 22.707031 522.054688 L 175.207031 610.160156 C 176.464844 614.914062 177.289062 618.960938 177.699219 622.257812 C 178.113281 623.929688 178.304688 625.261719 178.304688 626.304688 L 178.304688 631.273438 C 177.289062 645.742188 171.695312 655.246094 161.570312 659.800781 C 159.101562 660.84375 156.316406 661.789062 153.214844 662.589844 C 146.386719 663.632812 136.578125 663.726562 123.769531 662.902344 L 119.117188 662.902344 L 22.707031 607.058594 Z M 249.917969 723.402344 L 249.917969 808.40625 C 247.230469 813.8125 244.664062 819.796875 242.167969 826.414062 C 237.007812 840.691406 231.535156 850.605469 225.75 856.203125 C 225.117188 856.398438 224.804688 856.617188 224.804688 856.8125 C 214.898438 864.882812 200.441406 868.929688 181.40625 868.929688 C 156.414062 868.929688 133.066406 863.015625 111.367188 851.234375 C 104.347656 847.089844 98.4375 842.945312 93.691406 838.824219 L 89.039062 834.800781 C 80.78125 826.511719 75.1875 817.109375 72.304688 806.566406 C 70.660156 802.203125 69.617188 797.667969 69.207031 792.894531 L 68.890625 703.238281 C 69.109375 706.96875 69.714844 710.484375 70.757812 713.78125 L 71.070312 715.648438 C 73.953125 728.273438 79.957031 739.644531 89.039062 749.773438 C 94.828125 755.980469 102.261719 761.457031 111.367188 766.230469 C 132.027344 777.601562 154.234375 783.585938 178.015625 784.21875 L 181.40625 784.21875 C 200.222656 784.21875 214.582031 780.289062 224.511719 772.4375 C 224.707031 771.589844 225.117188 771.078125 225.75 770.886719 C 231.535156 765.285156 237.007812 755.46875 242.167969 741.410156 C 244.855469 734.164062 247.445312 728.152344 249.917969 723.402344 Z M 342.308594 791.972656 L 342.308594 706.65625 L 564.238281 834.800781 L 564.238281 920.121094 Z M 874.535156 632.507812 L 874.851562 548.425781 C 876.304688 554.4375 877.539062 560.328125 878.582031 566.121094 L 879.5 571.695312 C 882.816406 586.988281 888.292969 598.1875 895.945312 605.191406 C 905.242188 612.65625 918.976562 617.410156 937.164062 619.46875 L 937.164062 704.472656 C 918.757812 702.628906 905.027344 697.855469 895.945312 690.222656 C 888.292969 682.972656 882.816406 671.800781 879.5 656.699219 C 877.855469 646.566406 876.183594 638.519531 874.535156 632.507812 "/></g></g></svg>