<?xml version="1.0" encoding="UTF-8"?><svg xmlns="http://www.w3.org/2000/svg" xmlns:xlink="http://www.w3.org/1999/xlink" contentScriptType="text/ecmascript" width="1125pt" zoomAndPan="magnify" contentStyleType="text/css" viewBox="0 0 1125 1124.99995" height="1124.99995pt" preserveAspectRatio="xMidYMid meet" version="1.2"><defs><clipPath xml:id="clip1" id="clip1"><path d="M 666 207 L 805.371094 207 L 805.371094 421 L 666 421 Z M 666 207 "/></clipPath></defs><g xml:id="surface1" id="surface1"><path style=" stroke:none;fill-rule:nonzero;fill:rgb(13.729858%,17.248535%,19.999695%);fill-opacity:1;" d="M 678.792969 803.816406 C 673.339844 821.609375 681.066406 835.253906 678.792969 853.027344 C 676.515625 870.792969 654.214844 858.039062 652.394531 874.441406 C 650.578125 890.84375 616.90625 902.691406 601.878906 891.304688 C 586.867188 879.910156 610.527344 875.808594 622.816406 857.585938 C 635.105469 839.355469 641.015625 820.671875 641.015625 820.671875 L 678.792969 803.816406 "/><path style=" stroke:none;fill-rule:nonzero;fill:rgb(19.219971%,25.099182%,28.62854%);fill-opacity:1;" d="M 788.703125 846.875 C 788.648438 860.667969 795.53125 875.683594 788.703125 890.339844 C 781.875 904.988281 764.3125 896.195312 761.875 908.898438 C 759.4375 921.589844 736.027344 936.734375 719.933594 929.894531 C 703.839844 923.058594 719.445312 913.78125 732.609375 896.195312 C 745.78125 878.613281 752.402344 851.757812 752.402344 851.757812 L 788.703125 846.875 "/><path style=" stroke:none;fill-rule:nonzero;fill:rgb(15.689087%,25.878906%,62.348938%);fill-opacity:1;" d="M 631.9375 380.113281 C 628.84375 387.265625 633.332031 558.171875 633.476562 588.871094 C 633.628906 619.570312 626.628906 814.960938 633.601562 826.714844 C 640.566406 838.480469 667.78125 832.605469 677.820312 815.886719 C 687.25 800.175781 704.546875 657.40625 690.632812 609.878906 C 689.046875 604.464844 689.46875 598.789062 692.035156 593.761719 C 702.496094 573.171875 726.375 515.515625 709.867188 443.414062 C 695.902344 382.421875 631.9375 380.113281 631.9375 380.113281 "/><path style=" stroke:none;fill-rule:nonzero;fill:rgb(19.999695%,30.589294%,66.268921%);fill-opacity:1;" d="M 787.765625 427.34375 C 787.765625 427.34375 808.242188 526.011719 787.9375 636.523438 C 787.179688 640.6875 787.359375 644.894531 788.628906 648.921875 C 795.648438 671.1875 817.699219 755.46875 788.648438 860.667969 C 788.648438 860.667969 770.078125 881.082031 752.671875 861.792969 C 735.261719 842.496094 731.773438 672.511719 728.882812 637.742188 C 726.003906 602.96875 676.742188 447.640625 693.292969 420.074219 C 709.847656 392.511719 785.15625 397.367188 787.765625 427.34375 "/><path style=" stroke:none;fill-rule:nonzero;fill:rgb(19.999695%,30.589294%,66.268921%);fill-opacity:1;" d="M 631.28125 180.085938 C 630.363281 192.265625 615.085938 272.3125 611.542969 287.851562 C 608.007812 303.382812 565.632812 365.703125 564.183594 381.503906 C 562.738281 397.292969 583.292969 409.167969 597.839844 396.664062 C 612.386719 384.160156 648.347656 330.839844 656.75 306.175781 C 665.152344 281.519531 666.726562 203.636719 654.636719 189.90625 C 642.542969 176.167969 631.28125 180.085938 631.28125 180.085938 "/><path style=" stroke:none;fill-rule:nonzero;fill:rgb(29.019165%,33.729553%,68.629456%);fill-opacity:1;" d="M 783.78125 342.921875 C 786.75 379.789062 798.09375 414.90625 790.238281 442.6875 C 786.398438 456.144531 751.332031 456.839844 715.03125 447.929688 C 696.53125 443.390625 677.515625 436.398438 662.335938 427.136719 C 645.40625 417.003906 633.015625 404.246094 630.578125 389.394531 C 624.121094 348.164062 639.125 298.367188 638.605469 264.117188 C 637.902344 229.875 629.003906 189.519531 631.792969 170.464844 C 634.410156 152.125 652.214844 144.785156 675.246094 143.558594 C 687.816406 142.867188 702.121094 144.082031 716.082031 146.359375 C 728.289062 148.28125 740.859375 153.695312 752.542969 160.863281 C 778.542969 176.933594 799.839844 202.796875 802.800781 222.714844 C 806.992188 251.539062 780.820312 306.058594 783.78125 342.921875 "/><path style=" stroke:none;fill-rule:nonzero;fill:rgb(81.568909%,81.17981%,92.549133%);fill-opacity:1;" d="M 719.042969 294.871094 C 711.621094 318.929688 712.410156 412.113281 715.03125 447.929688 C 696.53125 443.390625 677.515625 436.398438 662.335938 427.136719 C 667.042969 391.320312 676.8125 315.320312 678.035156 287.539062 C 679.429688 253.640625 657.621094 173.4375 675.246094 143.558594 C 677.515625 143.386719 679.609375 143.386719 681.878906 143.386719 C 692.699219 143.386719 704.558594 144.433594 716.082031 146.359375 C 726.375 147.929688 736.847656 152.125 746.96875 157.710938 C 748.882812 158.585938 750.628906 159.808594 752.542969 160.863281 C 748.363281 185.140625 727.039062 269.261719 719.042969 294.871094 "/><path style=" stroke:none;fill-rule:nonzero;fill:rgb(90.979004%,47.839355%,39.219666%);fill-opacity:1;" d="M 746.96875 157.710938 C 741.03125 171.691406 723.234375 207.859375 695.660156 211.707031 C 695.660156 211.707031 668.09375 169.421875 681.878906 143.386719 C 692.699219 143.386719 704.558594 144.433594 716.082031 146.359375 C 726.375 147.929688 736.847656 152.125 746.96875 157.710938 "/><path style=" stroke:none;fill-rule:nonzero;fill:rgb(90.979004%,47.839355%,39.219666%);fill-opacity:1;" d="M 734.382812 133.722656 L 738.285156 157.414062 L 728.40625 163.394531 L 725.1875 154.359375 L 734.382812 133.722656 "/><path style=" stroke:none;fill-rule:nonzero;fill:rgb(91.369629%,59.21936%,51.759338%);fill-opacity:1;" d="M 655.671875 99.652344 C 655.699219 118.164062 661.480469 161.828125 677.828125 171.898438 C 694.167969 181.960938 728.722656 163.089844 737.519531 141.695312 C 746.320312 120.300781 749.484375 78.851562 730 64.386719 C 710.523438 49.910156 655.625 59.9375 655.671875 99.652344 "/><path style=" stroke:none;fill-rule:nonzero;fill:rgb(91.369629%,59.21936%,51.759338%);fill-opacity:1;" d="M 565.886719 383.816406 C 562.800781 387.050781 542.1875 388.527344 544.105469 393.238281 C 546.019531 397.953125 556.71875 393.070312 555.808594 397.078125 C 554.910156 401.09375 531.035156 418.886719 534.171875 422.203125 C 537.3125 425.515625 553.6875 407.546875 555.953125 410.859375 C 558.222656 414.175781 540.273438 428.832031 543.933594 431.796875 C 547.585938 434.769531 561.875 414.355469 565.011719 416.96875 C 568.152344 419.589844 553.164062 433.894531 556.996094 436.507812 C 560.828125 439.128906 571.285156 417.671875 574.59375 419.761719 C 577.90625 421.859375 565.183594 437.730469 571.285156 437.730469 C 577.382812 437.730469 594.980469 400.050781 593.242188 388.359375 C 591.5 376.664062 577.90625 371.261719 565.886719 383.816406 "/><path style=" stroke:none;fill-rule:nonzero;fill:rgb(92.939758%,11.369324%,14.118958%);fill-opacity:1;" d="M 598.902344 367.746094 L 605.253906 303.609375 L 592.121094 309.5625 L 585.769531 373.691406 L 598.902344 367.746094 "/><path style=" stroke:none;fill-rule:nonzero;fill:rgb(81.568909%,81.17981%,92.549133%);fill-opacity:1;" d="M 596.679688 368.746094 L 602.769531 307.300781 L 594.070312 311.238281 L 587.980469 372.691406 L 596.679688 368.746094 "/><path style=" stroke:none;fill-rule:nonzero;fill:rgb(72.549438%,11.369324%,14.118958%);fill-opacity:1;" d="M 674.175781 421.839844 L 598.902344 367.746094 L 585.769531 373.691406 L 661.042969 427.785156 L 674.175781 421.839844 "/><path style=" stroke:none;fill-rule:nonzero;fill:rgb(49.409485%,49.798584%,76.078796%);fill-opacity:1;" d="M 671.953125 422.839844 L 596.679688 368.746094 L 587.980469 372.691406 L 663.253906 426.785156 L 671.953125 422.839844 "/><path style=" stroke:none;fill-rule:nonzero;fill:rgb(94.119263%,22.349548%,31.759644%);fill-opacity:1;" d="M 598.921875 367.753906 L 605.273438 303.617188 L 680.546875 357.710938 L 674.195312 421.839844 L 598.921875 367.753906 "/><path style=" stroke:none;fill-rule:nonzero;fill:rgb(94.119263%,80.778503%,18.429565%);fill-opacity:1;" d="M 620.960938 371.234375 L 625.027344 330.183594 L 658.503906 354.234375 L 654.429688 395.285156 L 620.960938 371.234375 "/><path style=" stroke:none;fill-rule:nonzero;fill:rgb(94.119263%,22.349548%,31.759644%);fill-opacity:1;" d="M 622.796875 370.402344 L 626.46875 333.363281 L 656.667969 355.0625 L 653 392.105469 L 622.796875 370.402344 "/><path style=" stroke:none;fill-rule:nonzero;fill:rgb(94.119263%,80.778503%,18.429565%);fill-opacity:1;" d="M 642.554688 377.511719 L 644.910156 353.703125 L 648.132812 356.019531 L 645.773438 379.828125 L 642.554688 377.511719 "/><path style=" stroke:none;fill-rule:nonzero;fill:rgb(94.119263%,80.778503%,18.429565%);fill-opacity:1;" d="M 636.941406 373.476562 L 639.296875 349.667969 L 642.527344 351.980469 L 640.160156 375.792969 L 636.941406 373.476562 "/><path style=" stroke:none;fill-rule:nonzero;fill:rgb(94.119263%,80.778503%,18.429565%);fill-opacity:1;" d="M 631.957031 363.125 L 633.0625 351.957031 L 636.285156 354.269531 L 635.175781 365.441406 L 631.957031 363.125 "/><g clip-rule="nonzero" clip-path="url(#clip1)"><path style=" stroke:none;fill-rule:nonzero;fill:rgb(19.999695%,30.589294%,66.268921%);fill-opacity:1;" d="M 803.265625 223.722656 C 803.484375 239.839844 808.988281 309.5625 801.207031 341.894531 C 793.425781 374.222656 699.125 426.253906 682.34375 419.570312 C 665.558594 412.886719 663.308594 406.273438 669.363281 392.457031 C 674.25 381.304688 727.902344 348.910156 748.453125 336.8125 C 753.203125 334.011719 755.59375 328.5625 754.570312 323.136719 C 750.324219 300.589844 741.316406 242.191406 757.519531 221.929688 C 777.769531 196.625 803.070312 209.417969 803.265625 223.722656 "/></g><path style=" stroke:none;fill-rule:nonzero;fill:rgb(91.369629%,59.21936%,51.759338%);fill-opacity:1;" d="M 673.664062 393.148438 C 668.472656 393.589844 651.234375 387.511719 650.785156 393.160156 C 650.335938 398.808594 660.707031 397.789062 657.15625 402.898438 C 653.601562 408.011719 629.210938 400.066406 633.710938 405.734375 C 641.257812 415.246094 632.089844 413.679688 639.378906 418.527344 C 646.664062 423.382812 638.640625 425.785156 645.792969 428.109375 C 652.953125 430.433594 643.949219 435.976562 653.574219 435.445312 C 663.191406 434.921875 687.4375 422.941406 689.210938 412.355469 C 690.992188 401.769531 678.621094 392.726562 673.664062 393.148438 "/><path style=" stroke:none;fill-rule:nonzero;fill:rgb(29.40979%,19.999695%,18.429565%);fill-opacity:1;" d="M 659.054688 75.699219 C 654.050781 79.332031 646.351562 70.167969 645.242188 83.167969 C 644.136719 96.175781 651.046875 113.046875 672.59375 110.003906 C 694.148438 106.96875 699.113281 91.003906 713.761719 93.03125 C 728.40625 95.066406 711 102.425781 721.21875 110.363281 C 731.4375 118.308594 722.46875 150.117188 738.285156 147.074219 C 754.09375 144.035156 751.160156 89.457031 746.96875 79.304688 C 738.519531 58.835938 719.832031 31.722656 659.054688 75.699219 "/><path style=" stroke:none;fill-rule:nonzero;fill:rgb(91.369629%,59.21936%,51.759338%);fill-opacity:1;" d="M 603.285156 512.5625 C 610.5 512.101562 630.308594 495.65625 635.265625 499.03125 C 640.214844 502.417969 625.089844 509.105469 628.511719 512.5625 C 631.929688 516.011719 664.75 497.457031 669.480469 502.417969 C 674.203125 507.375 639.316406 515.039062 643.8125 518.867188 C 648.320312 522.695312 674.652344 510.976562 676.226562 515.492188 C 677.800781 519.996094 647.644531 523.824219 650.121094 527.886719 C 652.59375 531.941406 675.21875 526.308594 676.289062 531.039062 C 677.359375 535.777344 650.792969 533.976562 651.46875 538.480469 C 652.144531 542.984375 670.15625 544.335938 668.128906 548.171875 C 666.097656 552 619.503906 547.273438 609.375 542.082031 L 603.285156 512.5625 "/><path style=" stroke:none;fill-rule:nonzero;fill:rgb(64.309692%,63.529968%,85.099792%);fill-opacity:1;" d="M 333.722656 333.570312 C 333.722656 333.570312 315.746094 437.191406 322.808594 463 C 329.878906 488.800781 354.820312 536.667969 354.820312 536.667969 L 392.234375 430.535156 L 333.722656 333.570312 "/><path style=" stroke:none;fill-rule:nonzero;fill:rgb(19.219971%,12.548828%,12.548828%);fill-opacity:1;" d="M 331.472656 982.890625 C 331.769531 991.574219 327.875 1017.339844 332.964844 1031.722656 C 338.050781 1046.101562 365.578125 1047.902344 372.460938 1035.011719 C 379.34375 1022.128906 399.386719 1021.238281 404.46875 1007.457031 C 409.5625 993.675781 398.828125 997.871094 386.992188 994.871094 C 375.152344 991.871094 366.980469 980.496094 366.980469 980.496094 L 331.472656 982.890625 "/><path style=" stroke:none;fill-rule:nonzero;fill:rgb(29.40979%,19.999695%,18.429565%);fill-opacity:1;" d="M 468.03125 1030.769531 C 468.4375 1044.316406 458.828125 1076.414062 468.03125 1083.441406 C 477.234375 1090.457031 493.886719 1093.972656 500.464844 1081.683594 C 507.039062 1069.398438 546.488281 1063.253906 550.878906 1046.570312 C 555.25 1029.894531 538.597656 1035.597656 523.691406 1035.597656 C 508.792969 1035.597656 496.089844 1024.183594 496.089844 1024.183594 L 468.03125 1030.769531 "/><path style=" stroke:none;fill-rule:nonzero;fill:rgb(54.119873%,36.079407%,21.179199%);fill-opacity:1;" d="M 330.851562 565.792969 C 330.851562 565.792969 315.144531 710.988281 329.117188 775.601562 C 330.035156 779.863281 330.339844 784.105469 329.699219 788.414062 C 325.839844 814.457031 307.074219 912.851562 330.851562 994.464844 C 330.851562 994.464844 346.578125 1016.769531 369.511719 994.464844 C 392.441406 972.164062 385.945312 824.707031 391.308594 783.378906 C 396.671875 742.039062 426.675781 650.929688 409.886719 604.546875 C 393.097656 558.164062 330.851562 565.792969 330.851562 565.792969 "/><path style=" stroke:none;fill-rule:nonzero;fill:rgb(74.899292%,52.938843%,34.509277%);fill-opacity:1;" d="M 484.703125 601.871094 C 495.585938 628.617188 487.851562 783.105469 493.257812 832.292969 C 498.671875 881.484375 512.015625 996.277344 508.199219 1025.128906 C 504.386719 1053.992188 482.507812 1052.273438 468.4375 1044.316406 C 455.074219 1036.769531 429.273438 912.402344 439.117188 841.507812 C 440.070312 834.617188 439.421875 827.644531 436.550781 821.355469 C 420.089844 785.285156 364.832031 654.957031 396.734375 595.007812 C 425.269531 541.371094 477.316406 583.71875 484.703125 601.871094 "/><path style=" stroke:none;fill-rule:nonzero;fill:rgb(91.369629%,59.21936%,51.759338%);fill-opacity:1;" d="M 458.871094 239.964844 C 459.050781 261.261719 458.089844 304.707031 441.804688 318.6875 C 425.511719 332.667969 377.777344 305.285156 374.3125 268.773438 C 372.121094 245.566406 371.75 220.578125 402.824219 207.582031 C 436.984375 193.285156 458.683594 218.722656 458.871094 239.964844 "/><path style=" stroke:none;fill-rule:nonzero;fill:rgb(81.568909%,81.17981%,92.549133%);fill-opacity:1;" d="M 336.871094 323.335938 C 343.808594 309.976562 382.71875 305.128906 410.757812 308.320312 C 438.800781 311.507812 494.507812 360.316406 498.339844 384.566406 C 502.179688 408.816406 466.835938 483.800781 468.75 518.894531 C 470.65625 553.984375 495.902344 595.449219 483.074219 622.382812 C 462.507812 665.605469 336.582031 622.382812 328.691406 574.648438 C 323.394531 542.585938 346.390625 484.566406 345.757812 453.234375 C 345.121094 421.902344 323.871094 348.40625 336.871094 323.335938 "/><path style=" stroke:none;fill-rule:nonzero;fill:rgb(29.40979%,19.999695%,18.429565%);fill-opacity:1;" d="M 444.703125 205.472656 C 451.269531 207.921875 456.390625 204.554688 460.996094 216.5625 C 465.609375 228.570312 467.761719 240.261719 452.855469 244.578125 C 437.9375 248.882812 432.710938 254.738281 435.167969 267.359375 C 437.632812 279.980469 448.085938 303.382812 429.328125 308.308594 C 410.570312 313.238281 397.039062 308.308594 385.667969 301.535156 C 374.289062 294.761719 365.066406 263.972656 370.90625 242.425781 C 376.753906 220.867188 402.582031 189.769531 444.703125 205.472656 "/><path style=" stroke:none;fill-rule:nonzero;fill:rgb(64.309692%,63.529968%,85.099792%);fill-opacity:1;" d="M 445.84375 402.457031 C 447.707031 423.859375 471.613281 506.238281 483.640625 526.957031 C 495.675781 547.675781 587.234375 555.785156 607.945312 544.371094 C 628.664062 532.949219 625.992188 511.535156 612.621094 506.183594 C 601.835938 501.859375 547.6875 498.203125 526.320312 497.03125 C 521.648438 496.78125 517.96875 493.097656 517.671875 488.421875 C 516 462.019531 506.933594 380.457031 488.09375 370.359375 C 465.601562 358.296875 442.410156 362.890625 445.84375 402.457031 "/></g></svg>